<svg width="24" height="24" viewBox="0 0 24 24" fill="none" xmlns="http://www.w3.org/2000/svg">
<path d="M12.751 19.0002H11.251V16.0002H12.751V19.0002ZM6.7998 15.2766L5.2998 17.7766L4.0127 17.0051L5.5127 14.5051L6.7998 15.2766ZM19.9883 17.0051L18.7012 17.7766L17.2012 15.2766L18.4883 14.5051L19.9883 17.0051ZM4.37109 8.57739L4.52539 8.79614C6.16197 11.0311 8.8937 12.505 12 12.5051C15.2069 12.5051 18.0143 10.9338 19.6299 8.57642L19.7344 8.41138L20.3672 8.81274L21.001 9.21411L20.8828 9.40161C20.878 9.4092 20.8723 9.41666 20.8672 9.42407C18.9719 12.1896 15.7017 14.0051 12 14.0051C8.29876 14.005 5.02917 12.19 3.13379 9.42505C3.12978 9.4192 3.12496 9.41341 3.12109 9.40747L3 9.21899L4.26172 8.40649L4.37109 8.57739Z" fill="#1A1C19"/>
</svg>
